{"title":"The Secret of Kells-AC3-5,1-DVDRip[Eng]-2009","uid":5127170,"size":1063656883,"categoryP":"video","categoryS":"movies","magnet":"?xt=urn:btih:375a98dd3ef6866ec5a1b1bbcf1ac557be132f26&amp;dn=The+Secret+of+Kells-AC3-5%2C1-DVDRip%5BEng%5D-2009&amp;tr=udp%3A%2F%2Ftracker.openbittorrent.com%3A80&amp;tr=udp%3A%2F%2Fopen.demonii.com%3A1337&amp;tr=udp%3A%2F%2Ftracker.coppersurfer.tk%3A6969&amp;tr=udp%3A%2F%2Fexodus.desync.com%3A6969","seeders":4,"leechers":0,"uploader":"FatFreddy31","files":3,"time":1255739106,"description":" &lt;a href=&quot;http://www.imdb.com/title/tt0485601/&quot; rel=&quot;nofollow&quot; target=&quot;_NEW&quot;&gt;http://www.imdb.com/title/tt0485601/&lt;/a&gt;\n &lt;a href=&quot;\nhttp://www.thesecretofkells.com/&quot; rel=&quot;nofollow&quot; target=&quot;_NEW&quot;&gt;\nhttp://www.thesecretofkells.com/&lt;/a&gt;\n\nUser Rating:7.7/10 - 122 votes\n\nAnimation,Adventure\n\nDirectors:Tomm Moore/Nora Twomey\n\nWith the voices of:\nBrendan Gleeson ...  Abbot Cellach (voice) \nLiam Hourican   ...  Brother Tang / Leonardo (voice)\nMick Lally      ...  Aidan (voice) \n\nAnd others..\n\nPlot:\nThe animated story of the boy behind the famed Book of Kells. \n\nInfo:\n\nGeneral\nComplete name                    : The Secret of Kells-AC3-5,1-DVDRip[Eng]-2009.avi\nFormat                           : AVI\nFormat/Info                      : Audio Video Interleave\nFile size                        : 1 014 MiB\nDuration                         : 1h 15mn\nOverall bit rate                 : 1 879 Kbps\nWriting application              : VirtualDubMod 1.5.4.1 (build 2178/release)\nWriting library                  : VirtualDubMod build 2178/release\n\nVideo\nID                               : 0\nFormat                           : MPEG-4 Visual\nFormat profile                   : Simple@L3\nFormat settings, BVOP            : No\nFormat settings, QPel            : No\nFormat settings, GMC             : No warppoints\nFormat settings, Matrix          : Default (H.263)\nCodec ID                         : XVID\nCodec ID/Hint                    : XviD\nDuration                         : 1h 15mn\nBit rate                         : 1 421 Kbps\nWidth                            : 704 pixels\nHeight                           : 400 pixels\nDisplay aspect ratio             : 16:9\nFrame rate                       : 25.000 fps\nResolution                       : 24 bits\nColorimetry                      : 4:2:0\nScan type                        : Progressive\nBits/(Pixel*Frame)               : 0.202\nStream size                      : 767 MiB (76%)\nWriting library                  : XviD 1.1.2 (UTC 2006-11-01)\n\nAudio\nID                               : 1\nFormat                           : AC-3\nFormat/Info                      : Audio Coding 3\nCodec ID                         : 2000\nDuration                         : 1h 15mn\nBit rate mode                    : Constant\nBit rate                         : 448 Kbps\nChannel(s)                       : 6 channels\nChannel positions                : Front: L C R, Surround: L R, LFE\nSampling rate                    : 48.0 KHz\nStream size                      : 242 MiB (24%)\nAlignment                        : Split accross interleaves\nInterleave, duration             : 40 ms (1.00 video frame)\nInterleave, preload duration     : 500 ms\n\nEnjoy...","torrent":{"xt":"urn:btih:375a98dd3ef6866ec5a1b1bbcf1ac557be132f26","amp;dn":"The+Secret+of+Kells-AC3-5%2C1-DVDRip%5BEng%5D-2009","amp;tr":["udp%3A%2F%2Ftracker.openbittorrent.com%3A80","udp%3A%2F%2Fopen.demonii.com%3A1337","udp%3A%2F%2Ftracker.coppersurfer.tk%3A6969","udp%3A%2F%2Fexodus.desync.com%3A6969"],"infoHash":"375a98dd3ef6866ec5a1b1bbcf1ac557be132f26","infoHashBuffer":{"type":"Buffer","data":[55,90,152,221,62,246,134,110,197,161,177,187,207,26,197,87,190,19,47,38]},"announce":[],"urlList":[]}}